<?xml version="1.0" encoding="utf-8"?>
<!-- Generator: Adobe Illustrator 21.1.0, SVG Export Plug-In . SVG Version: 6.00 Build 0)  -->
<svg version="1.1" id="Layer_1" xmlns="http://www.w3.org/2000/svg" xmlns:xlink="http://www.w3.org/1999/xlink" x="0px" y="0px"
	 viewBox="0 0 503.4 267.2" style="enable-background:new 0 0 503.4 267.2;" xml:space="preserve">
<style type="text/css">
	.st0{fill:#424143;}
	.st1{fill:#EC232F;}
	.st2{fill:#FFFFFF;}
</style>
<g>
	<g>
		<path class="st0" d="M162.4,58.1"/>
	</g>
	<g>
		<g>
			<g>
				<g>
					<path class="st1" d="M342.2,28.2h-51.4c-8.7,0-26.5,0-27.1,0H134.2c-1,0-1.7,0.8-1.7,1.7v10.9c0,0.9,0.8,1.7,1.7,1.7h208
						c1,0,1.7-0.8,1.7-1.7V29.9C343.9,29,343.1,28.2,342.2,28.2z M139.4,38.9c-2,0-3.6-1.6-3.6-3.5c0-1.9,1.6-3.5,3.6-3.5
						c2,0,3.6,1.6,3.6,3.5C143,37.3,141.4,38.9,139.4,38.9z M151.4,38.9c-2,0-3.6-1.6-3.6-3.5c0-1.9,1.6-3.5,3.6-3.5
						c2,0,3.6,1.6,3.6,3.5C154.9,37.3,153.3,38.9,151.4,38.9z M163.3,38.9c-2,0-3.6-1.6-3.6-3.5c0-1.9,1.6-3.5,3.6-3.5
						s3.6,1.6,3.6,3.5C166.8,37.3,165.2,38.9,163.3,38.9z"/>
				</g>
			</g>
			<g>
				<g>
					<g>
						<path class="st0" d="M109.8,30.5c-1.2,0-2.3-1-2.3-2.3V17.9c0-1.2,1-2.3,2.3-2.3c1.2,0,2.3,1,2.3,2.3v10.3
							C112,29.4,111,30.5,109.8,30.5z"/>
					</g>
				</g>
				<g>
					<g>
						<path class="st0" d="M136.8,190.3h-22.6c-3.7,0-6.8-3-6.8-6.8V35.4c0-1.2,1-2.3,2.3-2.3c1.2,0,2.3,1,2.3,2.3v148.1
							c0,1.3,1,2.3,2.2,2.3h22.6c1.2,0,2.3,1,2.3,2.3C139.1,189.3,138.1,190.3,136.8,190.3z"/>
					</g>
				</g>
				<g>
					<g>
						<path class="st0" d="M156.1,190.3h-11.9c-1.2,0-2.3-1-2.3-2.3c0-1.2,1-2.3,2.3-2.3h11.9c1.2,0,2.3,1,2.3,2.3
							C158.4,189.3,157.3,190.3,156.1,190.3z"/>
					</g>
				</g>
				<g>
					<g>
						<path class="st0" d="M169,190.3h-4.9c-1.2,0-2.3-1-2.3-2.3c0-1.2,1-2.3,2.3-2.3h4.9c1.2,0,2.3,1,2.3,2.3
							C171.3,189.3,170.3,190.3,169,190.3z"/>
					</g>
				</g>
				<g>
					<g>
						<path class="st0" d="M109.8,13c-1.2,0-2.3-1-2.3-2.3V6.9c0-3.7,3-6.8,6.8-6.8h225.5c1.2,0,2.3,1,2.3,2.3s-1,2.3-2.3,2.3H114.3
							c-1.2,0-2.2,1-2.2,2.3v3.8C112,12,111,13,109.8,13z"/>
					</g>
				</g>
				<g>
					<g>
						<path class="st0" d="M361.4,190.3H176.8c-1.2,0-2.3-1-2.3-2.3c0-1.2,1-2.3,2.3-2.3h184.5c1.2,0,2.2-1,2.2-2.3v-61.9
							c0-1.2,1-2.3,2.3-2.3c1.2,0,2.3,1,2.3,2.3v61.9C368.1,187.3,365.1,190.3,361.4,190.3z"/>
					</g>
				</g>
				<g>
					<g>
						<path class="st0" d="M366.1,71c-1.2,0-2.3-1-2.3-2.3V6.8c0-1.3-1-2.3-2.2-2.3H177.1c-1.2,0-2.3-1-2.3-2.3c0-1.2,1-2.3,2.3-2.3
							h184.5c3.7,0,6.8,3,6.8,6.8v61.9C368.3,70,367.3,71,366.1,71z"/>
					</g>
				</g>
				<g>
					<g>
						<path class="st0" d="M353.1,148.8H122.5c-1.2,0-2.3-1-2.3-2.3V20.6c0-1.2,1-2.3,2.3-2.3h22.2c1.2,0,2.3,1,2.3,2.3
							s-1,2.3-2.3,2.3h-20v121.4h226v-44.1c0-1.2,1-2.3,2.3-2.3c1.2,0,2.3,1,2.3,2.3v46.3C355.3,147.8,354.3,148.8,353.1,148.8z"/>
					</g>
				</g>
				<g>
					<g>
						<path class="st0" d="M353.1,148.8H122.5c-1.2,0-2.3-1-2.3-2.3v-46.3c0-1.2,1-2.3,2.3-2.3s2.3,1,2.3,2.3v44.1h226V22.9h-20
							c-1.2,0-2.3-1-2.3-2.3s1-2.3,2.3-2.3h22.2c1.2,0,2.3,1,2.3,2.3v125.9C355.3,147.8,354.3,148.8,353.1,148.8z"/>
					</g>
				</g>
				<g>
					<g>
						<path class="st0" d="M337.7,22.9h-44.8c-1.2,0-2.3-1-2.3-2.3s1-2.3,2.3-2.3h44.8c1.2,0,2.3,1,2.3,2.3S338.9,22.9,337.7,22.9z"
							/>
					</g>
				</g>
				<g>
					<g>
						<path class="st0" d="M258.9,215.6h-42.1c-1.2,0-2.3-1-2.3-2.3V188c0-1.2,1-2.3,2.3-2.3h42.1c1.2,0,2.3,1,2.3,2.3v25.3
							C261.1,214.6,260.1,215.6,258.9,215.6z M219,211.1h37.6v-20.8H219V211.1z"/>
					</g>
				</g>
				<g>
					<g>
						<path class="st0" d="M281.5,226.7h-87.5c-3.5,0-6.4-2.9-6.4-6.4v-2.7c0-3.5,2.9-6.4,6.4-6.4h87.5c3.5,0,6.4,2.9,6.4,6.4v2.7
							C288,223.8,285.1,226.7,281.5,226.7z M194.1,215.6c-1,0-1.9,0.9-1.9,1.9v2.7c0,1.1,0.9,1.9,1.9,1.9h87.5
							c1.1,0,1.9-0.9,1.9-1.9v-2.7c0-1.1-0.9-1.9-1.9-1.9H194.1z"/>
					</g>
				</g>
				<g>
					<g>
						<path class="st0" d="M237.8,176.4c-5,0-9.1-4.1-9.1-9.1c0-5,4.1-9.1,9.1-9.1s9.1,4.1,9.1,9.1
							C246.9,172.3,242.8,176.4,237.8,176.4z M237.8,162.7c-2.5,0-4.6,2.1-4.6,4.6c0,2.5,2,4.6,4.6,4.6s4.6-2.1,4.6-4.6
							C242.4,164.7,240.3,162.7,237.8,162.7z"/>
					</g>
				</g>
				<g>
					<g>
						<path class="st0" d="M184.9,22.9h-31.2c-1.2,0-2.3-1-2.3-2.3s1-2.3,2.3-2.3h31.2c1.2,0,2.3,1,2.3,2.3S186.1,22.9,184.9,22.9z"
							/>
					</g>
				</g>
				<g>
					<g>
						<path class="st0" d="M212.5,22.9h-17.8c-1.2,0-2.3-1-2.3-2.3s1-2.3,2.3-2.3h17.8c1.2,0,2.3,1,2.3,2.3S213.8,22.9,212.5,22.9z"
							/>
					</g>
				</g>
				<g>
					<g>
						<path class="st0" d="M230.6,22.9h-8.9c-1.2,0-2.3-1-2.3-2.3s1-2.3,2.3-2.3h8.9c1.2,0,2.3,1,2.3,2.3S231.9,22.9,230.6,22.9z"/>
					</g>
				</g>
				<g>
					<g>
						<path class="st0" d="M298,22.9h-58.3c-1.2,0-2.3-1-2.3-2.3s1-2.3,2.3-2.3H298c1.2,0,2.3,1,2.3,2.3S299.2,22.9,298,22.9z"/>
					</g>
				</g>
				<g>
					<g>
						<path class="st0" d="M365.9,89.2c-1.2,0-2.3-1-2.3-2.3V76.4c0-1.2,1-2.3,2.3-2.3c1.2,0,2.3,1,2.3,2.3v10.5
							C368.1,88.2,367.1,89.2,365.9,89.2z"/>
					</g>
				</g>
				<g>
					<g>
						<path class="st0" d="M365.9,104c-1.2,0-2.3-1-2.3-2.3v-6.8c0-1.2,1-2.3,2.3-2.3c1.2,0,2.3,1,2.3,2.3v6.8
							C368.1,103,367.1,104,365.9,104z"/>
					</g>
				</g>
				<g>
					<g>
						<path class="st0" d="M365.9,115.1c-1.2,0-2.3-1-2.3-2.3v-2.9c0-1.2,1-2.3,2.3-2.3c1.2,0,2.3,1,2.3,2.3v2.9
							C368.1,114.1,367.1,115.1,365.9,115.1z"/>
					</g>
				</g>
			</g>
			<g>
				<g>
					<g>
						<path class="st0" d="M367.1,222.2H17c-1.2,0-2.3,1-2.3,2.3c0,1.2,1,2.3,2.3,2.3h350.1C367.1,225.2,367.1,223.6,367.1,222.2z"
							/>
					</g>
					<g>
						<path class="st0" d="M433.4,222.2h-10c0,1.7,0,3,0,4.5h10c1.2,0,2.3-1,2.3-2.3C435.7,223.2,434.7,222.2,433.4,222.2z"/>
					</g>
				</g>
				<g>
					<g>
						<path class="st0" d="M7.8,226.7H2.3c-1.2,0-2.3-1-2.3-2.3c0-1.2,1-2.3,2.3-2.3h5.5c1.2,0,2.3,1,2.3,2.3
							C10,225.7,9,226.7,7.8,226.7z"/>
					</g>
				</g>
				<g>
					<g>
						<path class="st0" d="M453.2,226.7h-11c-1.2,0-2.3-1-2.3-2.3c0-1.2,1-2.3,2.3-2.3h11c1.2,0,2.3,1,2.3,2.3
							C455.4,225.7,454.4,226.7,453.2,226.7z"/>
					</g>
				</g>
				<g>
					<g>
						<path class="st0" d="M464.8,226.7h-3.5c-1.2,0-2.3-1-2.3-2.3c0-1.2,1-2.3,2.3-2.3h3.5c1.2,0,2.3,1,2.3,2.3
							C467.1,225.7,466.1,226.7,464.8,226.7z"/>
					</g>
				</g>
				<g>
					<g>
						<path class="st0" d="M474,226.7h-0.9c-1.2,0-2.3-1-2.3-2.3c0-1.2,1-2.3,2.3-2.3h0.9c1.2,0,2.3,1,2.3,2.3
							C476.3,225.7,475.3,226.7,474,226.7z"/>
					</g>
				</g>
			</g>
		</g>
	</g>
	<g>
		<g>
			<g>
				<path class="st0" d="M395.5,267.4h-0.5c-13.1,0-23.8-10.7-23.8-23.8v-21.7c0-13.1,10.7-23.8,23.8-23.8h0.5
					c13.1,0,23.8,10.7,23.8,23.8v21.7C419.3,256.7,408.6,267.4,395.5,267.4z M394.9,202.6c-10.6,0-19.3,8.6-19.3,19.3v21.7
					c0,10.6,8.6,19.3,19.3,19.3h0.5c10.6,0,19.3-8.6,19.3-19.3v-21.7c0-10.6-8.6-19.3-19.3-19.3H394.9z"/>
			</g>
		</g>
		<g>
			<g>
				<path class="st0" d="M391.1,224h-17.7c-1.2,0-2.3-1-2.3-2.3c0-1.2,1-2.3,2.3-2.3h17.7c1.2,0,2.3,1,2.3,2.3
					C393.4,223,392.3,224,391.1,224z"/>
			</g>
		</g>
		<g>
			<g>
				<path class="st0" d="M417,224h-17.7c-1.2,0-2.3-1-2.3-2.3c0-1.2,1-2.3,2.3-2.3H417c1.2,0,2.3,1,2.3,2.3
					C419.3,223,418.2,224,417,224z"/>
			</g>
		</g>
		<g>
			<g>
				<path class="st0" d="M395.2,218.5c-1.2,0-2.3-1-2.3-2.3v-15.9c0-1.2,1-2.3,2.3-2.3s2.3,1,2.3,2.3v15.9
					C397.5,217.5,396.5,218.5,395.2,218.5z"/>
			</g>
		</g>
		<g>
			<ellipse class="st1" cx="395.4" cy="223.3" rx="3.3" ry="6.6"/>
		</g>
		<g>
			<g>
				<path class="st0" d="M395.3,232.7h-0.1c-3.5,0-6.3-2.8-6.3-6.3v-6.1c0-3.5,2.8-6.3,6.3-6.3c3.6,0,6.4,2.8,6.4,6.3v6.1
					C401.6,229.9,398.7,232.7,395.3,232.7z M395.3,218.5c-1.1,0-1.9,0.8-1.9,1.8v6.1c0,1,0.8,1.8,1.8,1.8h0.1c1,0,1.8-0.8,1.8-1.8
					v-6.1C397.1,219.3,396.2,218.5,395.3,218.5z"/>
			</g>
		</g>
	</g>
	<g>
		<g>
			<path class="st0" d="M210.9,115.8h-71.7c-3.7,0-6.8-3-6.8-6.8V58.6c0-3.7,3-6.8,6.8-6.8h71.7c3.7,0,6.8,4.5,6.8,8.3V109
				C217.7,112.7,214.7,115.8,210.9,115.8z M139.3,56.3c-1.2,0-2.3,1-2.3,2.3V109c0,1.2,1,2.3,2.3,2.3h71.7c1.2,0,2.3-1,2.3-2.3V58.6
				c0-1.2-1-2.3-2.3-2.3H139.3z"/>
		</g>
	</g>
	<g>
		<g>
			<path class="st0" d="M336.9,115.6H233.6c-3.7,0-6.8-3-6.8-6.8V58.3c0-3.7,3-6.8,6.8-6.8h103.3c3.7,0,6.8,3,6.8,6.8v50.4
				C343.7,112.5,340.6,115.6,336.9,115.6z M233.6,56.1c-1.2,0-2.3,1-2.3,2.3v50.4c0,1.2,1,2.3,2.3,2.3h103.3c1.2,0,2.3-1,2.3-2.3
				V58.3c0-1.2-1-2.3-2.3-2.3H233.6z"/>
		</g>
	</g>
	<g>
		<g>
			<g>
				<path class="st0" d="M207,72h-63.6c-1.2,0-2.3-1-2.3-2.3c0-1.2,1-2.3,2.3-2.3H207c1.2,0,2.3,1,2.3,2.3C209.3,71,208.3,72,207,72
					z"/>
			</g>
		</g>
	</g>
	<g>
		<g>
			<g>
				<path class="st0" d="M207,80.6h-63.6c-1.2,0-2.3-1-2.3-2.3s1-2.3,2.3-2.3H207c1.2,0,2.3,1,2.3,2.3S208.2,80.6,207,80.6z"/>
			</g>
		</g>
	</g>
	<g>
		<g>
			<g>
				<path class="st0" d="M207,89.3h-63.6c-1.2,0-2.3-1-2.3-2.3c0-1.2,1-2.3,2.3-2.3H207c1.2,0,2.3,1,2.3,2.3
					C209.3,88.3,208.3,89.3,207,89.3z"/>
			</g>
		</g>
	</g>
	<g>
		<g>
			<g>
				<path class="st0" d="M207,97.9h-63.6c-1.2,0-2.3-1-2.3-2.3s1-2.3,2.3-2.3H207c1.2,0,2.3,1,2.3,2.3S208.2,97.9,207,97.9z"/>
			</g>
		</g>
	</g>
	<g>
		<g>
			<polygon class="st1" points="276.2,73.5 295,83 276.2,92.6 			"/>
		</g>
	</g>
	<g>
		<g>
			<path class="st0" d="M341.4,127.8H134.7c-1.2,0-2.3-1-2.3-2.3s1-2.3,2.3-2.3h206.8c1.2,0,2.3,1,2.3,2.3S342.7,127.8,341.4,127.8z
				"/>
		</g>
	</g>
	<g>
		<g>
			<path class="st0" d="M329.4,138.2H146.7c-1.2,0-2.3-1-2.3-2.3s1-2.3,2.3-2.3h182.7c1.2,0,2.3,1,2.3,2.3S330.6,138.2,329.4,138.2z
				"/>
		</g>
	</g>
	<g>
		<g>
			<g>
				<path class="st0" d="M392.5,102.8c-0.3,0-0.6-0.1-0.9-0.2c-0.8-0.4-1.2-1.4-1-2.2l5.8-20.5h-0.5c-4,0-7.3-3.3-7.3-7.3V38.8
					c0-4,3.3-7.3,7.3-7.3h58.2c4,0,7.3,3.3,7.3,7.3v15.9c0,1.1-0.9,1.9-1.9,1.9h-13c-1.1,0-1.9-0.9-1.9-1.9c0-1.2-1-2.2-2.2-2.2
					c-1.2,0-2.2,1-2.2,2.2c0,1.1-0.9,1.9-1.9,1.9c-1.1,0-1.9-0.9-1.9-1.9c0-3.3,2.7-6.1,6.1-6.1c2.7,0,4.9,1.7,5.7,4.1h9.4v-14
					c0-1.9-1.5-3.4-3.4-3.4h-58.2c-1.9,0-3.4,1.5-3.4,3.4v33.8c0,1.9,1.5,3.4,3.4,3.4h3.1c0.6,0,1.2,0.3,1.5,0.8
					c0.4,0.5,0.5,1.1,0.3,1.7L397,92.2l12.3-15.5c0.4-0.5,0.9-0.7,1.5-0.7h21.7c1.1,0,1.9,0.9,1.9,1.9c0,1.1-0.9,1.9-1.9,1.9h-20.8
					L394,102.1C393.7,102.6,393.1,102.8,392.5,102.8z M424.1,60.7c-3.3,0-6.1-2.7-6.1-6.1s2.7-6.1,6.1-6.1c3.3,0,6.1,2.7,6.1,6.1
					S427.4,60.7,424.1,60.7z M424.1,52.5c-1.2,0-2.2,1-2.2,2.2c0,1.2,1,2.2,2.2,2.2c1.2,0,2.2-1,2.2-2.2
					C426.3,53.5,425.3,52.5,424.1,52.5z M405.9,60.7c-3.3,0-6.1-2.7-6.1-6.1s2.7-6.1,6.1-6.1c3.3,0,6.1,2.7,6.1,6.1
					S409.2,60.7,405.9,60.7z M405.9,52.5c-1.2,0-2.2,1-2.2,2.2c0,1.2,1,2.2,2.2,2.2c1.2,0,2.2-1,2.2-2.2
					C408,53.5,407.1,52.5,405.9,52.5z"/>
			</g>
		</g>
		<g>
			<g>
				<polygon class="st1" points="432.1,60.4 432.1,96.3 436.7,99.1 479.6,99.1 498.4,122.2 492.4,100.1 495.4,99.6 499.4,97.6 
					501.4,94.6 501.4,59.2 498.6,56.2 493.9,54.7 435.7,55.5 432.1,59.2 				"/>
			</g>
			<g>
				<circle class="st2" cx="448.2" cy="77.2" r="4"/>
			</g>
			<g>
				<circle class="st2" cx="466.2" cy="76.9" r="4"/>
			</g>
			<g>
				<circle class="st2" cx="483.9" cy="76.9" r="4"/>
			</g>
			<g>
				<path class="st0" d="M499.5,124.1c-0.6,0-1.1-0.3-1.5-0.7l-17.7-22.3h-42.4c-4,0-7.3-3.3-7.3-7.3V60.1c0-4,3.3-7.3,7.3-7.3h58.2
					c4,0,7.3,3.3,7.3,7.3v33.8c0,4-3.3,7.3-7.3,7.3h-0.5l5.8,20.5c0.3,0.9-0.2,1.8-1,2.2C500.1,124,499.8,124.1,499.5,124.1z
					 M437.9,56.6c-1.9,0-3.4,1.5-3.4,3.4v33.8c0,1.9,1.5,3.4,3.4,3.4h43.3c0.6,0,1.1,0.3,1.5,0.7l12.3,15.5l-3.9-13.7
					c-0.2-0.6,0-1.2,0.3-1.7c0.4-0.5,0.9-0.8,1.5-0.8h3.1c1.9,0,3.4-1.5,3.4-3.4V60.1c0-1.9-1.5-3.4-3.4-3.4H437.9z M485.3,82.4
					c-3.3,0-6.1-2.7-6.1-6.1c0-3.3,2.7-6.1,6.1-6.1c3.3,0,6.1,2.7,6.1,6.1C491.3,79.7,488.6,82.4,485.3,82.4z M485.3,74.2
					c-1.2,0-2.2,1-2.2,2.2c0,1.2,1,2.2,2.2,2.2c1.2,0,2.2-1,2.2-2.2C487.5,75.1,486.5,74.2,485.3,74.2z M467,82.4
					c-3.3,0-6.1-2.7-6.1-6.1c0-3.3,2.7-6.1,6.1-6.1c3.3,0,6.1,2.7,6.1,6.1C473.1,79.7,470.4,82.4,467,82.4z M467,74.2
					c-1.2,0-2.2,1-2.2,2.2c0,1.2,1,2.2,2.2,2.2c1.2,0,2.2-1,2.2-2.2C469.2,75.1,468.2,74.2,467,74.2z M448.8,82.4
					c-3.3,0-6.1-2.7-6.1-6.1c0-3.3,2.7-6.1,6.1-6.1c3.3,0,6.1,2.7,6.1,6.1C454.8,79.7,452.1,82.4,448.8,82.4z M448.8,74.2
					c-1.2,0-2.2,1-2.2,2.2c0,1.2,1,2.2,2.2,2.2c1.2,0,2.2-1,2.2-2.2C451,75.1,450,74.2,448.8,74.2z"/>
			</g>
		</g>
	</g>
	<g>
		<g>
			<polygon class="st2" points="25.3,166.3 29.3,174.1 31.9,174.8 34.9,173.1 41.6,177.7 41.2,183.4 46.7,185 51.2,186 53.4,182.1 
				54.5,181.2 61.8,180.9 65.1,185 73.6,180.6 71.7,175.2 76.6,169.1 81.9,169.5 85,159.1 80.4,157.3 78.7,150.5 83,147.3 
				78.9,137.6 73.2,140.1 67.5,135.3 68.7,128.6 57.6,125.3 55.1,130.8 48.1,132 43.6,127 35.1,131.9 37.6,138.8 32.9,143.2 
				26,142.8 23.9,152.3 29.8,155.1 30.5,161.1 			"/>
		</g>
		<g>
			<g>
				<path class="st0" d="M53.9,126.9l-0.6,2c-1.6,0-3.1,0.2-4.7,0.5l-1-1.8c-1.2-2.2-3.9-3-6.1-1.8l-6.5,3.5c-1,0.6-1.8,1.5-2.1,2.7
					l0,0c-0.3,1.1-0.2,2.4,0.4,3.4l1,1.8c-1.1,1.1-2.1,2.4-3,3.7l-2-0.6c-2.4-0.7-4.9,0.7-5.6,3l-2.1,7.1c-0.7,2.4,0.7,4.9,3,5.6
					l2,0.6c0,1.6,0.2,3.1,0.5,4.7l-1.8,1c-2.1,1.1-2.9,4-1.8,6.1l3.5,6.5c1.2,2.2,3.9,3,6.1,1.8l1.8-1c1.1,1.1,2.4,2.1,3.7,3l-0.6,2
					c-0.7,2.4,0.7,4.9,3,5.6l3,0.9l1.4,0.4l3,0.9c2.4,0.7,4.9-0.7,5.6-3l0.6-2c1.6,0,3.1-0.2,4.7-0.5l1,1.8c1.2,2.2,3.9,3,6.1,1.8
					l6.5-3.5c1-0.6,1.8-1.5,2.2-2.7l0,0c0.3-1.1,0.2-2.4-0.4-3.4l-1-1.8c1.1-1.1,2.1-2.4,3-3.7l2,0.6c2.4,0.7,4.9-0.7,5.6-3l2.1-7.1
					c0.7-2.4-0.7-4.9-3-5.6l-2-0.6c0-1.6-0.2-3.1-0.5-4.7l1.8-1c2.1-1.1,2.9-4,1.8-6.1l-3.5-6.5c-1.2-2.2-3.9-3-6.1-1.8l-1.8,1
					c-1.1-1.1-2.4-2.1-3.7-3l0.6-2c0.7-2.4-0.7-4.9-3-5.6l-3-0.9l-1.4-0.4l-3-0.9C57.1,123.2,54.6,124.5,53.9,126.9z M61.2,129
					l1.4,0.4l3,0.9c0.1,0,0.1,0.1,0.1,0.1l-1.1,3.6c-0.3,1,0.1,2,1,2.5c2,1.2,3.8,2.6,5.3,4.3c0.7,0.7,1.8,0.9,2.6,0.4l3.3-1.8
					c0,0,0.1,0,0.2,0l3.5,6.5c0,0,0,0,0,0c0,0,0,0.1,0,0.1l-3.3,1.8c-0.9,0.5-1.3,1.5-1.1,2.5c0.6,2.2,0.8,4.5,0.7,6.8
					c0,1,0.6,1.9,1.6,2.2l3.6,1.1c0.1,0,0.1,0.1,0.1,0.1l-2.1,7.1c0,0.1-0.1,0.1-0.1,0.1l-3.6-1.1c-1-0.3-2,0.1-2.5,1
					c-1.2,2-2.6,3.8-4.3,5.3c-0.7,0.7-0.9,1.8-0.4,2.6l1.8,3.3c0,0,0,0,0,0c0,0,0,0.1,0,0.1l-6.5,3.5c0,0-0.1,0-0.2,0l-1.8-3.3
					c-0.5-0.9-1.5-1.3-2.5-1.1c-2.2,0.6-4.5,0.8-6.8,0.7c-1,0-1.9,0.6-2.2,1.6l-1.1,3.6c0,0.1-0.1,0.1-0.1,0.1l-3-0.9l-1.4-0.4
					l-3-0.9c-0.1,0-0.1-0.1-0.1-0.1l1.1-3.6c0.3-1-0.1-2-1-2.5c-2-1.2-3.8-2.6-5.3-4.3c-0.7-0.7-1.8-0.9-2.6-0.4l-3.3,1.8
					c0,0-0.1,0-0.2,0l-3.5-6.5c0,0,0,0,0,0c0,0,0-0.1,0-0.1l3.3-1.8c0.9-0.5,1.3-1.5,1.1-2.5c-0.6-2.2-0.8-4.5-0.7-6.8
					c0-1-0.6-1.9-1.6-2.2l-3.6-1.1c-0.1,0-0.1-0.1-0.1-0.1l2.1-7.1c0-0.1,0.1-0.1,0.1-0.1l3.6,1.1c1,0.3,2-0.1,2.5-1
					c1.2-2,2.6-3.8,4.3-5.3c0.7-0.7,0.9-1.8,0.4-2.6l-1.8-3.3c0,0,0,0,0,0c0,0,0-0.1,0-0.1l6.5-3.5c0,0,0.1,0,0.2,0l1.8,3.3
					c0.5,0.9,1.5,1.3,2.5,1.1c2.2-0.6,4.5-0.8,6.8-0.7c1,0,1.9-0.6,2.2-1.6l1.1-3.6c0-0.1,0.1-0.1,0.1-0.1L61.2,129z"/>
			</g>
			<g>
				<path class="st0" d="M56.9,145.6c-5.8-1.7-11.9,1.6-13.6,7.4c-1.7,5.8,1.6,11.9,7.4,13.6c0.1,0,0.1,0,0.2,0
					c0.1,0,0.1,0.1,0.2,0.1c5.8,1.7,11.9-1.6,13.6-7.4c1.7-5.8-1.6-11.9-7.4-13.6c-0.1,0-0.1,0-0.2,0
					C57,145.6,56.9,145.6,56.9,145.6z M56,149.8c3.5,1,5.5,4.7,4.4,8.2c-1,3.5-4.7,5.5-8.2,4.4c-0.1,0-0.1,0-0.2,0
					c-0.1,0-0.1-0.1-0.2-0.1c-3.5-1-5.5-4.7-4.4-8.2c1-3.5,4.7-5.5,8.2-4.4c0.1,0,0.1,0,0.2,0C55.9,149.8,56,149.8,56,149.8z"/>
			</g>
		</g>
	</g>
	<g>
		<g>
			<polygon class="st2" points="58.5,185.7 60.7,189.9 62.1,190.3 63.7,189.3 67.3,191.9 67.1,194.9 70.1,195.8 72.5,196.3 
				73.7,194.2 74.3,193.7 78.3,193.6 80.1,195.8 84.7,193.4 83.6,190.5 86.3,187.2 89.2,187.4 90.8,181.8 88.4,180.8 87.4,177.1 
				89.7,175.4 87.5,170.1 84.5,171.5 81.3,168.9 82,165.2 76,163.4 74.6,166.5 70.9,167.1 68.4,164.4 63.8,167 65.2,170.8 
				62.6,173.2 58.9,172.9 57.7,178.1 60.9,179.6 61.3,182.9 			"/>
		</g>
		<g>
			<g>
				<path class="st0" d="M74,164.3l-0.3,1.1c-0.9,0-1.7,0.1-2.5,0.3l-0.5-1c-0.6-1.2-2.1-1.6-3.3-1l-3.5,1.9c-0.6,0.3-1,0.8-1.2,1.4
					l0,0c-0.2,0.6-0.1,1.3,0.2,1.8l0.5,1c-0.6,0.6-1.1,1.3-1.6,2l-1.1-0.3c-1.3-0.4-2.6,0.4-3,1.6l-1.1,3.8c-0.4,1.3,0.4,2.6,1.6,3
					l1.1,0.3c0,0.9,0.1,1.7,0.3,2.5l-1,0.5c-1.1,0.6-1.6,2.2-1,3.3l1.9,3.5c0.6,1.2,2.1,1.6,3.3,1l1-0.5c0.6,0.6,1.3,1.1,2,1.6
					l-0.3,1.1c-0.4,1.3,0.4,2.6,1.6,3l1.6,0.5l0.8,0.2l1.6,0.5c1.3,0.4,2.6-0.4,3-1.6l0.3-1.1c0.9,0,1.7-0.1,2.5-0.3l0.5,1
					c0.6,1.2,2.1,1.6,3.3,1l3.5-1.9c0.6-0.3,1-0.8,1.2-1.4c0,0,0,0,0,0c0.2-0.6,0.1-1.3-0.2-1.8l-0.5-1c0.6-0.6,1.1-1.3,1.6-2
					l1.1,0.3c1.3,0.4,2.6-0.4,3-1.6l1.1-3.8c0.4-1.3-0.4-2.6-1.6-3l-1.1-0.3c0-0.9-0.1-1.7-0.3-2.5l1-0.5c1.1-0.6,1.6-2.2,1-3.3
					l-1.9-3.5c-0.6-1.2-2.1-1.6-3.3-1l-1,0.5c-0.6-0.6-1.3-1.1-2-1.6l0.3-1.1c0.4-1.3-0.4-2.6-1.6-3l-1.6-0.5l-0.8-0.2l-1.6-0.5
					C75.7,162.3,74.3,163,74,164.3z M77.9,165.4l0.8,0.2l1.6,0.5c0,0,0,0,0,0.1l-0.6,1.9c-0.2,0.5,0.1,1.1,0.5,1.4
					c1.1,0.6,2,1.4,2.9,2.3c0.4,0.4,1,0.5,1.4,0.2l1.8-1c0,0,0.1,0,0.1,0l1.9,3.5c0,0,0,0,0,0c0,0,0,0.1,0,0.1l-1.8,1
					c-0.5,0.3-0.7,0.8-0.6,1.3c0.3,1.2,0.4,2.4,0.4,3.7c0,0.5,0.3,1,0.8,1.2l1.9,0.6c0,0,0,0,0,0.1l-1.1,3.8c0,0,0,0-0.1,0l-1.9-0.6
					c-0.5-0.2-1.1,0.1-1.4,0.5c-0.6,1.1-1.4,2-2.3,2.9c-0.4,0.4-0.5,1-0.2,1.4l1,1.8c0,0,0,0,0,0c0,0,0,0.1,0,0.1l-3.5,1.9
					c0,0-0.1,0-0.1,0l-1-1.8c-0.3-0.5-0.8-0.7-1.3-0.6c-1.2,0.3-2.4,0.4-3.7,0.4c-0.5,0-1,0.3-1.2,0.8l-0.6,1.9c0,0,0,0-0.1,0
					l-1.6-0.5l-0.8-0.2l-1.6-0.5c0,0,0,0,0-0.1l0.6-1.9c0.2-0.5-0.1-1.1-0.5-1.4c-1.1-0.6-2-1.4-2.9-2.3c-0.4-0.4-1-0.5-1.4-0.2
					l-1.8,1c0,0-0.1,0-0.1,0l-1.9-3.5c0,0,0,0,0,0c0,0,0-0.1,0-0.1l1.8-1c0.5-0.3,0.7-0.8,0.6-1.3c-0.3-1.2-0.4-2.4-0.4-3.7
					c0-0.5-0.3-1-0.8-1.2l-1.9-0.6c0,0,0,0,0-0.1l1.1-3.8c0,0,0,0,0.1,0l1.9,0.6c0.5,0.2,1.1-0.1,1.4-0.5c0.6-1.1,1.4-2,2.3-2.9
					c0.4-0.4,0.5-1,0.2-1.4l-1-1.8c0,0,0,0,0,0c0,0,0-0.1,0-0.1l3.5-1.9c0,0,0.1,0,0.1,0l1,1.8c0.3,0.5,0.8,0.7,1.3,0.6
					c1.2-0.3,2.4-0.4,3.7-0.4c0.5,0,1-0.3,1.2-0.8l0.6-1.9c0,0,0,0,0.1,0L77.9,165.4z"/>
				<path class="st0" d="M71.7,197.9c-0.3,0-0.5,0-0.8-0.1l-4-1.2c-1.4-0.4-2.2-1.9-1.8-3.3l0.3-0.9c-0.6-0.4-1.2-0.9-1.7-1.4
					l-0.8,0.5c-1.3,0.7-2.9,0.2-3.6-1.1l-1.9-3.5c-0.3-0.6-0.4-1.3-0.2-2s0.7-1.3,1.3-1.6l0.8-0.5c-0.1-0.7-0.2-1.5-0.2-2.2
					l-0.9-0.3c-1.4-0.4-2.2-1.9-1.8-3.3l1.1-3.8c0.2-0.7,0.7-1.2,1.3-1.6c0.6-0.3,1.3-0.4,2-0.2l0.9,0.3c0.4-0.6,0.9-1.2,1.4-1.7
					l-0.5-0.8c-0.3-0.6-0.4-1.3-0.2-2c0.2-0.7,0.7-1.3,1.3-1.6l3.5-1.9c0.6-0.3,1.3-0.4,2-0.2c0.7,0.2,1.2,0.7,1.6,1.3l0.5,0.8
					c0.7-0.1,1.5-0.2,2.2-0.2l0.3-0.9c0.2-0.7,0.7-1.2,1.3-1.6s1.3-0.4,2-0.2l4,1.2c1.4,0.4,2.2,1.9,1.8,3.3l-0.3,0.9
					c0.6,0.4,1.2,0.9,1.7,1.4l0.8-0.5c1.3-0.7,2.9-0.2,3.6,1.1l1.9,3.5c0.3,0.6,0.4,1.3,0.2,2c-0.2,0.7-0.7,1.3-1.3,1.6l-0.8,0.5
					c0.1,0.7,0.2,1.5,0.2,2.2L90,180c1.4,0.4,2.2,1.9,1.8,3.3l-1.1,3.8c-0.4,1.4-1.9,2.2-3.3,1.8l-0.9-0.3c-0.4,0.6-0.9,1.2-1.4,1.7
					l0.5,0.8c0.3,0.6,0.4,1.3,0.2,2c-0.2,0.7-0.7,1.3-1.3,1.6l-3.5,1.9c-0.6,0.3-1.3,0.4-2,0.2c-0.7-0.2-1.2-0.7-1.6-1.3l-0.5-0.8
					c-0.7,0.1-1.5,0.2-2.2,0.2l-0.3,0.9c-0.2,0.7-0.7,1.2-1.3,1.6C72.6,197.8,72.2,197.9,71.7,197.9z M63.8,190.4l0.1,0.1
					c0.6,0.6,1.3,1.1,2,1.6l0.2,0.1l-0.4,1.3c-0.3,1.1,0.3,2.4,1.5,2.7l4,1.2c0.6,0.2,1.1,0.1,1.7-0.2c0.5-0.3,0.9-0.7,1-1.3
					l0.4-1.3l0.2,0c0.8,0,1.7-0.1,2.5-0.3l0.2,0l0.6,1.2c0.3,0.5,0.7,0.9,1.3,1c0.6,0.2,1.1,0.1,1.7-0.2l3.5-1.9
					c0.5-0.3,0.9-0.7,1-1.3s0.1-1.1-0.2-1.7l-0.6-1.2l0.1-0.1c0.6-0.6,1.1-1.3,1.6-2l0.1-0.2l1.3,0.4c1.2,0.3,2.4-0.3,2.7-1.5
					l1.1-3.8c0.3-1.1-0.3-2.4-1.5-2.7l-1.3-0.4l0-0.2c0-0.8-0.1-1.7-0.3-2.5l0-0.2l1.2-0.6c0.5-0.3,0.9-0.7,1-1.3
					c0.2-0.6,0.1-1.2-0.2-1.6l-1.9-3.5c-0.6-1.1-1.9-1.4-2.9-0.9l-1.2,0.6l-0.1-0.1c-0.6-0.6-1.3-1.1-2-1.6l-0.2-0.1l0.4-1.3
					c0.3-1.1-0.3-2.4-1.5-2.7l-4-1.2c-0.6-0.2-1.1-0.1-1.7,0.2c-0.5,0.3-0.9,0.7-1,1.3l-0.4,1.3l-0.2,0c-0.8,0-1.7,0.1-2.5,0.3
					l-0.2,0l-0.6-1.2c-0.3-0.5-0.7-0.9-1.3-1c-0.6-0.2-1.1-0.1-1.7,0.2l-3.5,1.9c-0.5,0.3-0.9,0.7-1,1.3c-0.2,0.6-0.1,1.1,0.2,1.7
					l0.6,1.2l-0.1,0.1c-0.6,0.6-1.1,1.3-1.6,2l-0.1,0.2l-1.3-0.4c-0.6-0.2-1.1-0.1-1.7,0.2c-0.5,0.3-0.9,0.7-1,1.3l-1.1,3.8
					c-0.3,1.1,0.3,2.4,1.5,2.7l1.3,0.4l0,0.2c0,0.8,0.1,1.7,0.3,2.5l0,0.2l-1.2,0.6c-0.5,0.3-0.9,0.7-1,1.3
					c-0.2,0.6-0.1,1.2,0.2,1.6l1.9,3.5c0.6,1.1,1.9,1.4,2.9,0.9L63.8,190.4z M71.7,195.6C71.7,195.6,71.7,195.6,71.7,195.6l-4.1-1.2
					c-0.2,0-0.3-0.2-0.2-0.4L68,192c0.1-0.4-0.1-0.8-0.4-1.1c-1.1-0.6-2.1-1.4-2.9-2.4c-0.3-0.3-0.8-0.4-1.1-0.2l-1.8,1
					c-0.2,0.1-0.3,0-0.4-0.1l-2-3.6l0.1-0.3l1.9-1c0.4-0.2,0.6-0.6,0.5-1.1c-0.3-1.2-0.5-2.5-0.4-3.7c0-0.4-0.3-0.8-0.7-0.9
					l-1.9-0.6c-0.2,0-0.3-0.2-0.2-0.4l1.1-3.8c0-0.2,0.2-0.3,0.4-0.2l1.9,0.6c0.4,0.1,0.9-0.1,1.1-0.4c0.6-1.1,1.4-2.1,2.4-2.9
					c0.3-0.3,0.4-0.8,0.2-1.1l-1-1.9l0.1-0.3l3.6-2c0.1-0.1,0.3,0,0.4,0.1l1,1.8c0.2,0.4,0.6,0.6,1.1,0.5c1.2-0.3,2.5-0.4,3.7-0.4
					c0.4,0,0.8-0.3,0.9-0.7l0.6-1.9c0-0.2,0.2-0.3,0.4-0.2l4.1,1.2l0.1,0.1c0,0.1,0,0.2,0,0.2l-0.6,1.9c-0.1,0.4,0.1,0.9,0.4,1.1
					c1.1,0.6,2.1,1.4,2.9,2.4c0.3,0.3,0.8,0.4,1.1,0.2l1.9-1l0.1,0c0.1,0,0.1,0.1,0.2,0.1l2,3.6l-0.1,0.3l-1.9,1
					c-0.4,0.2-0.6,0.6-0.5,1.1c0.3,1.2,0.5,2.5,0.4,3.7c0,0.4,0.3,0.8,0.7,0.9l2,0.6l0.1,0.2l0,0.1l-1.1,3.8
					c-0.1,0.2-0.2,0.3-0.4,0.2l-1.9-0.6c-0.4-0.1-0.9,0.1-1.1,0.4c-0.6,1.1-1.4,2.1-2.4,2.9c-0.3,0.3-0.4,0.8-0.2,1.1l1,1.9l0,0.1
					l0.1,0.1l-3.9,2.1l-0.1,0c-0.1,0-0.1-0.1-0.2-0.1l-1-1.8c-0.2-0.4-0.6-0.6-1.1-0.5c-1.2,0.3-2.5,0.5-3.7,0.4
					c-0.4,0-0.8,0.3-0.9,0.7l-0.6,1.9C72,195.5,71.9,195.6,71.7,195.6z M67.9,193.9l3.7,1.1l0.5-1.8c0.2-0.6,0.8-1.1,1.4-1
					c1.2,0.1,2.4-0.1,3.6-0.4c0.6-0.2,1.3,0.1,1.6,0.7l0.9,1.6l3.2-1.7l-0.9-1.6c-0.3-0.6-0.2-1.3,0.3-1.7c0.9-0.8,1.7-1.8,2.3-2.8
					c0.3-0.6,1-0.8,1.6-0.7l1.8,0.5l1-3.5l-1.8-0.5c-0.6-0.2-1.1-0.8-1-1.4c0.1-1.2-0.1-2.4-0.4-3.6c-0.2-0.6,0.1-1.3,0.7-1.6
					l1.6-0.9l-1.7-3.2l-1.6,0.9c-0.6,0.3-1.3,0.2-1.7-0.3c-0.8-0.9-1.8-1.7-2.8-2.3c-0.6-0.3-0.8-1-0.6-1.6l0.5-1.8l-3.7-1.1
					l-0.5,1.8c-0.2,0.6-0.8,1.1-1.4,1c-1.2-0.1-2.4,0.1-3.6,0.4c-0.6,0.2-1.3-0.1-1.6-0.7l-0.9-1.6l-3.2,1.7l0.9,1.6
					c0.3,0.6,0.2,1.3-0.3,1.7c-0.9,0.8-1.7,1.8-2.3,2.8c-0.3,0.6-1,0.8-1.6,0.7l-1.8-0.5l-1,3.5l1.8,0.5c0.6,0.2,1.1,0.8,1,1.4
					c-0.1,1.2,0.1,2.4,0.4,3.6c0.2,0.6-0.1,1.3-0.7,1.6l-1.6,0.9l1.7,3.2l1.6-0.9c0.6-0.3,1.3-0.2,1.7,0.3c0.8,0.9,1.8,1.7,2.8,2.3
					c0.6,0.3,0.8,1,0.6,1.6L67.9,193.9z M61.7,189L61.7,189C61.7,189,61.7,189,61.7,189z M60.1,173.9L60.1,173.9
					C60.1,173.9,60.1,173.9,60.1,173.9z M86.6,171.3L86.6,171.3C86.6,171.3,86.6,171.3,86.6,171.3z"/>
			</g>
			<g>
				<path class="st0" d="M75.6,174.4c-3.1-0.9-6.4,0.9-7.4,4s0.9,6.4,4,7.4c0,0,0.1,0,0.1,0c0,0,0.1,0,0.1,0.1
					c3.1,0.9,6.4-0.9,7.4-4c0.9-3.1-0.9-6.4-4-7.4c0,0-0.1,0-0.1,0C75.7,174.5,75.6,174.4,75.6,174.4z M75.1,176.8
					c1.9,0.6,3,2.5,2.4,4.4c-0.6,1.9-2.5,3-4.4,2.4c0,0-0.1,0-0.1,0c0,0-0.1,0-0.1-0.1c-1.9-0.6-3-2.5-2.4-4.4
					c0.6-1.9,2.5-3,4.4-2.4c0,0,0.1,0,0.1,0C75.1,176.7,75.1,176.7,75.1,176.8z"/>
				<path class="st0" d="M74.1,186.3c-0.6,0-1.2-0.1-1.8-0.3l-0.2-0.1c-3.3-1-5.1-4.4-4.2-7.7c0.5-1.6,1.5-2.9,3-3.7
					c1.4-0.8,3.1-1,4.7-0.5c0.1,0,0.1,0,0.1,0.1c0,0,0,0,0.1,0c3.3,1,5.1,4.4,4.2,7.7c-0.5,1.6-1.5,2.9-3,3.7
					C76.1,186.1,75.1,186.3,74.1,186.3z M72.3,185.5C72.3,185.5,72.4,185.5,72.3,185.5l0.1,0l0.1,0c1.4,0.4,3,0.3,4.3-0.5
					c1.3-0.7,2.3-1.9,2.7-3.4c0.9-3-0.8-6.2-3.8-7c0,0-0.1,0-0.1,0l0,0l-0.1-0.1h0c-1.4-0.4-3-0.3-4.3,0.5c-1.3,0.7-2.3,1.9-2.7,3.4
					C67.6,181.5,69.3,184.7,72.3,185.5C72.3,185.5,72.3,185.5,72.3,185.5z M74.1,184c-0.4,0-0.7-0.1-1.1-0.2c0,0-0.1,0-0.1,0l0,0
					l-0.1,0c-1-0.3-1.8-0.9-2.3-1.8c-0.5-0.9-0.6-1.9-0.3-2.9c0.6-2,2.7-3.2,4.7-2.6c0,0,0.1,0,0.1,0l0,0l0.1,0l0,0
					c1,0.3,1.8,0.9,2.3,1.8c0.5,0.9,0.6,1.9,0.3,2.9C77.3,182.9,75.8,184,74.1,184z M73.1,183.3C73.1,183.3,73.2,183.3,73.1,183.3
					c1.8,0.5,3.7-0.5,4.2-2.2c0.3-0.8,0.2-1.7-0.3-2.5c-0.4-0.8-1.1-1.3-2-1.6l0,0c-0.1,0-0.1,0-0.1-0.1c0,0,0,0-0.1,0
					c-1.7-0.5-3.6,0.5-4.1,2.2c-0.3,0.8-0.2,1.7,0.3,2.5c0.4,0.8,1.1,1.3,2,1.6C73,183.3,73.1,183.3,73.1,183.3
					C73.1,183.3,73.1,183.3,73.1,183.3z"/>
			</g>
		</g>
	</g>
</g>
</svg>
